<svg width="490" height="100" viewBox="0 0 490 100" fill="none" xmlns="http://www.w3.org/2000/svg">
<path d="M199.75 57.75H154.25C153.287 57.75 152.5 58.6781 152.5 59.8125V63.9375C152.5 65.0719 153.287 66 154.25 66H199.75C200.713 66 201.5 65.0719 201.5 63.9375V59.8125C201.5 58.6781 200.713 57.75 199.75 57.75ZM206.75 16.5C203.852 16.5 201.5 19.2715 201.5 22.6875C201.5 23.6027 201.675 24.4535 201.981 25.2398L194.062 30.8344C192.378 32.0203 190.202 31.35 189.228 29.3391L180.314 10.957C181.484 9.82266 182.25 8.12109 182.25 6.1875C182.25 2.77148 179.898 0 177 0C174.102 0 171.75 2.77148 171.75 6.1875C171.75 8.12109 172.516 9.82266 173.686 10.957L164.772 29.3391C163.798 31.35 161.611 32.0203 159.938 30.8344L152.03 25.2398C152.325 24.4664 152.511 23.6027 152.511 22.6875C152.511 19.2715 150.159 16.5 147.261 16.5C144.362 16.5 142 19.2715 142 22.6875C142 26.1035 144.352 28.875 147.25 28.875C147.534 28.875 147.819 28.8234 148.092 28.7719L156 53.625H198L205.908 28.7719C206.181 28.8234 206.466 28.875 206.75 28.875C209.648 28.875 212 26.1035 212 22.6875C212 19.2715 209.648 16.5 206.75 16.5Z" fill="#01575A"/>
<path d="M13.608 62.324C11.616 62.324 9.9 62.144 8.46 61.784C7.044 61.4 5.736 60.728 4.536 59.768C2.112 57.872 0.9 54.236 0.9 48.86C0.9 46.604 1.224 44.636 1.872 42.956C2.544 41.276 3.468 39.944 4.644 38.96C6.948 37.04 9.936 36.08 13.608 36.08C15.504 36.08 17.148 36.248 18.54 36.584C19.956 36.92 21.288 37.532 22.536 38.42C25.056 40.244 26.316 43.724 26.316 48.86C26.316 53.468 25.176 56.864 22.896 59.048C20.616 61.232 17.52 62.324 13.608 62.324ZM12.42 56.168C12.708 56.504 13.104 56.672 13.608 56.672C14.112 56.672 14.508 56.504 14.796 56.168C15.084 55.808 15.324 55.064 15.516 53.936C15.708 52.784 15.804 51.188 15.804 49.148C15.804 47.108 15.708 45.536 15.516 44.432C15.324 43.328 15.084 42.608 14.796 42.272C14.508 41.936 14.112 41.768 13.608 41.768C13.104 41.768 12.708 41.936 12.42 42.272C12.132 42.608 11.892 43.328 11.7 44.432C11.508 45.536 11.412 47.108 11.412 49.148C11.412 51.188 11.508 52.784 11.7 53.936C11.892 55.064 12.132 55.808 12.42 56.168ZM40.0989 50.12V61.136C40.0989 61.4 39.4389 61.616 38.1189 61.784C36.7989 61.928 35.1789 62 33.2589 62C31.3389 62 30.3789 61.712 30.3789 61.136V50.12H28.5429C27.8949 50.12 27.5709 49.028 27.5709 46.844C27.5709 45.98 27.7149 45.176 28.0029 44.432C28.3149 43.664 28.7109 43.28 29.1909 43.28H30.3789C30.3789 41.672 30.6069 40.268 31.0629 39.068C31.5429 37.868 32.1069 36.956 32.7549 36.332C33.4269 35.684 34.2309 35.168 35.1669 34.784C36.5589 34.208 38.1429 33.92 39.9189 33.92C44.3829 33.92 46.6149 34.652 46.6149 36.116C46.6149 37.7 46.4589 38.996 46.1469 40.004C45.8349 41.012 45.4149 41.516 44.8869 41.516C44.6709 41.516 44.2629 41.444 43.6629 41.3C43.0869 41.132 42.5349 41.048 42.0069 41.048C40.6149 41.048 39.9189 41.528 39.9189 42.488C39.9189 42.728 39.9789 42.992 40.0989 43.28H44.8869C45.5349 43.28 45.8589 44.336 45.8589 46.448C45.8589 47.384 45.7149 48.236 45.4269 49.004C45.1629 49.748 44.8029 50.12 44.3469 50.12H40.0989ZM60.2083 50.12V61.136C60.2083 61.4 59.5483 61.616 58.2283 61.784C56.9083 61.928 55.2883 62 53.3683 62C51.4483 62 50.4883 61.712 50.4883 61.136V50.12H48.6523C48.0043 50.12 47.6803 49.028 47.6803 46.844C47.6803 45.98 47.8243 45.176 48.1123 44.432C48.4243 43.664 48.8203 43.28 49.3003 43.28H50.4883C50.4883 41.672 50.7163 40.268 51.1723 39.068C51.6523 37.868 52.2163 36.956 52.8643 36.332C53.5363 35.684 54.3403 35.168 55.2763 34.784C56.6683 34.208 58.2523 33.92 60.0283 33.92C64.4923 33.92 66.7243 34.652 66.7243 36.116C66.7243 37.7 66.5683 38.996 66.2563 40.004C65.9443 41.012 65.5243 41.516 64.9963 41.516C64.7803 41.516 64.3723 41.444 63.7723 41.3C63.1963 41.132 62.6443 41.048 62.1163 41.048C60.7243 41.048 60.0283 41.528 60.0283 42.488C60.0283 42.728 60.0883 42.992 60.2083 43.28H64.9963C65.6443 43.28 65.9683 44.336 65.9683 46.448C65.9683 47.384 65.8243 48.236 65.5363 49.004C65.2723 49.748 64.9123 50.12 64.4563 50.12H60.2083ZM78.5897 43.388V61.136C78.5897 61.4 77.8937 61.616 76.5017 61.784C75.1337 61.928 73.7177 62 72.2537 62C70.8137 62 69.8777 61.94 69.4457 61.82C69.0377 61.676 68.8337 61.448 68.8337 61.136V44.036C68.8337 43.508 69.5057 42.992 70.8497 42.488C72.2177 41.96 73.7057 41.696 75.3137 41.696C77.4977 41.696 78.5897 42.26 78.5897 43.388ZM73.6937 33.92C75.2777 33.92 76.5137 34.16 77.4017 34.64C78.3137 35.096 78.7697 35.936 78.7697 37.16C78.7697 39.32 77.0897 40.4 73.7297 40.4C70.3697 40.4 68.6897 39.32 68.6897 37.16C68.6897 35 70.3577 33.92 73.6937 33.92ZM85.9196 61.388C85.3436 61.124 84.7196 60.728 84.0476 60.2C83.3996 59.672 82.8596 59.048 82.4276 58.328C81.4196 56.6 80.9156 54.344 80.9156 51.56C80.9156 49.832 81.1916 48.296 81.7436 46.952C82.2956 45.584 82.9676 44.528 83.7596 43.784C84.5516 43.04 85.4636 42.428 86.4956 41.948C88.1516 41.18 89.8076 40.796 91.4636 40.796C94.2476 40.796 96.1796 41.012 97.2596 41.444C98.3636 41.876 98.9156 42.608 98.9156 43.64C98.9156 44.672 98.7236 45.776 98.3396 46.952C97.9796 48.104 97.4996 48.68 96.8996 48.68C96.7076 48.68 96.1196 48.476 95.1356 48.068C94.1756 47.66 93.3356 47.456 92.6156 47.456C91.9196 47.456 91.3796 47.744 90.9956 48.32C90.6356 48.872 90.4556 49.964 90.4556 51.596C90.4556 53.204 90.6236 54.308 90.9596 54.908C91.2956 55.484 91.8116 55.772 92.5076 55.772C93.2276 55.772 94.1156 55.532 95.1716 55.052C96.2276 54.572 96.8156 54.332 96.9356 54.332C97.3916 54.332 97.8236 54.872 98.2316 55.952C98.6636 57.032 98.8796 57.992 98.8796 58.832C98.8796 60.128 98.2076 61.04 96.8636 61.568C95.5196 62.072 93.6956 62.324 91.3916 62.324C89.1116 62.324 87.2876 62.012 85.9196 61.388ZM110.969 43.388V61.136C110.969 61.4 110.273 61.616 108.881 61.784C107.513 61.928 106.097 62 104.633 62C103.193 62 102.257 61.94 101.825 61.82C101.417 61.676 101.213 61.448 101.213 61.136V44.036C101.213 43.508 101.885 42.992 103.229 42.488C104.597 41.96 106.085 41.696 107.693 41.696C109.877 41.696 110.969 42.26 110.969 43.388ZM106.073 33.92C107.657 33.92 108.893 34.16 109.781 34.64C110.693 35.096 111.149 35.936 111.149 37.16C111.149 39.32 109.469 40.4 106.109 40.4C102.749 40.4 101.069 39.32 101.069 37.16C101.069 35 102.737 33.92 106.073 33.92ZM120.495 62.324C118.311 62.324 116.595 61.808 115.347 60.776C114.843 60.344 114.399 59.708 114.015 58.868C113.655 58.028 113.475 57.044 113.475 55.916C113.475 54.788 113.739 53.804 114.267 52.964C114.819 52.124 115.479 51.476 116.247 51.02C117.015 50.564 117.915 50.192 118.947 49.904C120.507 49.496 122.223 49.292 124.095 49.292H125.283C125.283 48.308 124.947 47.612 124.275 47.204C123.987 47.036 123.543 46.952 122.943 46.952C122.367 46.952 121.659 47.108 120.819 47.42C120.003 47.732 119.319 48.056 118.767 48.392C118.215 48.704 117.843 48.86 117.651 48.86C117.219 48.86 116.631 48.296 115.887 47.168C115.143 46.016 114.771 44.972 114.771 44.036C114.771 43.724 115.215 43.316 116.103 42.812C116.991 42.308 118.239 41.852 119.847 41.444C121.479 41.012 123.063 40.796 124.599 40.796C126.135 40.796 127.455 40.928 128.559 41.192C129.687 41.432 130.599 41.732 131.295 42.092C132.015 42.452 132.615 42.932 133.095 43.532C133.599 44.132 133.971 44.672 134.211 45.152C134.475 45.632 134.667 46.256 134.787 47.024C134.955 47.912 135.039 49.004 135.039 50.3V61.136C135.039 61.4 134.391 61.616 133.095 61.784C131.823 61.928 130.551 62 129.279 62C128.031 62 127.215 61.964 126.831 61.892C126.471 61.82 126.255 61.736 126.183 61.64C126.111 61.544 126.051 61.376 126.003 61.136L125.715 59.084H125.427C124.827 61.244 123.183 62.324 120.495 62.324ZM125.319 56.348V52.136C124.695 52.136 124.191 52.4 123.807 52.928C123.423 53.456 123.231 54.056 123.231 54.728C123.231 56.312 123.591 57.104 124.311 57.104C124.623 57.104 124.863 57.032 125.031 56.888C125.223 56.72 125.319 56.54 125.319 56.348ZM147.281 35.576V61.136C147.281 61.4 146.597 61.616 145.229 61.784C143.861 61.928 142.445 62 140.981 62C139.541 62 138.605 61.94 138.173 61.82C137.765 61.676 137.561 61.448 137.561 61.136V36.224C137.561 35.696 138.233 35.18 139.577 34.676C140.945 34.172 142.409 33.92 143.969 33.92C146.177 33.92 147.281 34.472 147.281 35.576ZM216.621 60.956C216.621 61.316 215.841 61.58 214.281 61.748C212.745 61.916 211.281 62 209.889 62C208.497 62 207.597 61.916 207.189 61.748C206.781 61.58 206.577 61.316 206.577 60.956V38.132C206.577 37.508 206.889 37.064 207.513 36.8C208.137 36.536 209.313 36.404 211.041 36.404H224.397C224.901 36.404 225.153 37.316 225.153 39.14C225.153 40.94 225.033 42.32 224.793 43.28C224.577 44.216 224.289 44.684 223.929 44.684L216.621 44.324V46.772C219.813 46.628 221.949 46.556 223.029 46.556C223.389 46.556 223.629 46.748 223.749 47.132C223.893 47.516 223.965 48.26 223.965 49.364C223.965 50.444 223.845 51.488 223.605 52.496C223.365 53.48 223.029 53.972 222.597 53.972L216.621 53.756V60.956ZM234.33 62.324C232.146 62.324 230.43 61.808 229.182 60.776C228.678 60.344 228.234 59.708 227.85 58.868C227.49 58.028 227.31 57.044 227.31 55.916C227.31 54.788 227.574 53.804 228.102 52.964C228.654 52.124 229.314 51.476 230.082 51.02C230.85 50.564 231.75 50.192 232.782 49.904C234.342 49.496 236.058 49.292 237.93 49.292H239.118C239.118 48.308 238.782 47.612 238.11 47.204C237.822 47.036 237.378 46.952 236.778 46.952C236.202 46.952 235.494 47.108 234.654 47.42C233.838 47.732 233.154 48.056 232.602 48.392C232.05 48.704 231.678 48.86 231.486 48.86C231.054 48.86 230.466 48.296 229.722 47.168C228.978 46.016 228.606 44.972 228.606 44.036C228.606 43.724 229.05 43.316 229.938 42.812C230.826 42.308 232.074 41.852 233.682 41.444C235.314 41.012 236.898 40.796 238.434 40.796C239.97 40.796 241.29 40.928 242.394 41.192C243.522 41.432 244.434 41.732 245.13 42.092C245.85 42.452 246.45 42.932 246.93 43.532C247.434 44.132 247.806 44.672 248.046 45.152C248.31 45.632 248.502 46.256 248.622 47.024C248.79 47.912 248.874 49.004 248.874 50.3V61.136C248.874 61.4 248.226 61.616 246.93 61.784C245.658 61.928 244.386 62 243.114 62C241.866 62 241.05 61.964 240.666 61.892C240.306 61.82 240.09 61.736 240.018 61.64C239.946 61.544 239.886 61.376 239.838 61.136L239.55 59.084H239.262C238.662 61.244 237.018 62.324 234.33 62.324ZM239.154 56.348V52.136C238.53 52.136 238.026 52.4 237.642 52.928C237.258 53.456 237.066 54.056 237.066 54.728C237.066 56.312 237.426 57.104 238.146 57.104C238.458 57.104 238.698 57.032 238.866 56.888C239.058 56.72 239.154 56.54 239.154 56.348ZM284.193 50.12V61.136C284.193 61.4 283.509 61.616 282.141 61.784C280.797 61.928 279.393 62 277.929 62C276.489 62 275.553 61.94 275.121 61.82C274.689 61.676 274.473 61.448 274.473 61.136V51.164C274.473 47.732 274.125 46.016 273.429 46.016C273.261 46.016 273.093 46.088 272.925 46.232C272.757 46.376 272.673 46.628 272.673 46.988V61.136C272.673 61.4 271.989 61.616 270.621 61.784C269.277 61.928 267.873 62 266.409 62C264.945 62 263.997 61.94 263.565 61.82C263.157 61.676 262.953 61.448 262.953 61.136V51.164C262.953 48.5 262.785 46.904 262.449 46.376C262.281 46.136 262.065 46.016 261.801 46.016C261.345 46.016 261.117 46.34 261.117 46.988V61.136C261.117 61.4 260.433 61.616 259.065 61.784C257.697 61.928 256.281 62 254.817 62C253.377 62 252.441 61.94 252.009 61.82C251.601 61.676 251.397 61.448 251.397 61.136V43.388C251.397 42.884 252.081 42.38 253.449 41.876C254.841 41.372 256.305 41.12 257.841 41.12C259.377 41.12 260.241 41.564 260.433 42.452L260.757 44.036H261.009C261.705 42.668 262.857 41.696 264.465 41.12C265.137 40.904 266.001 40.796 267.057 40.796C269.169 40.796 270.705 41.876 271.665 44.036C271.977 43.316 272.757 42.596 274.005 41.876C275.253 41.156 276.633 40.796 278.145 40.796C280.521 40.796 282.117 41.54 282.933 43.028C283.773 44.492 284.193 46.856 284.193 50.12ZM296.629 43.388V61.136C296.629 61.4 295.933 61.616 294.541 61.784C293.173 61.928 291.757 62 290.293 62C288.853 62 287.917 61.94 287.485 61.82C287.077 61.676 286.873 61.448 286.873 61.136V44.036C286.873 43.508 287.545 42.992 288.889 42.488C290.257 41.96 291.745 41.696 293.353 41.696C295.537 41.696 296.629 42.26 296.629 43.388ZM291.733 33.92C293.317 33.92 294.553 34.16 295.441 34.64C296.353 35.096 296.809 35.936 296.809 37.16C296.809 39.32 295.129 40.4 291.769 40.4C288.409 40.4 286.729 39.32 286.729 37.16C286.729 35 288.397 33.92 291.733 33.92ZM309.035 35.576V61.136C309.035 61.4 308.351 61.616 306.983 61.784C305.615 61.928 304.199 62 302.735 62C301.295 62 300.359 61.94 299.927 61.82C299.519 61.676 299.315 61.448 299.315 61.136V36.224C299.315 35.696 299.987 35.18 301.331 34.676C302.699 34.172 304.163 33.92 305.723 33.92C307.931 33.92 309.035 34.472 309.035 35.576ZM323.681 59.66V57.536H323.393C323.273 57.656 323.093 57.812 322.853 58.004C322.613 58.196 322.049 58.448 321.161 58.76C320.273 59.072 319.277 59.228 318.173 59.228C317.093 59.228 316.133 59.06 315.293 58.724C314.477 58.364 313.829 57.896 313.349 57.32C312.869 56.72 312.497 55.928 312.233 54.944C311.777 53.384 311.549 51.176 311.549 48.32V43.352C311.549 42.848 312.257 42.356 313.673 41.876C315.089 41.372 316.577 41.12 318.137 41.12C320.225 41.12 321.269 41.66 321.269 42.74V47.276C321.269 52.076 321.653 54.476 322.421 54.476C322.877 54.476 323.105 54.152 323.105 53.504V43.352C323.105 42.848 323.861 42.356 325.373 41.876C326.885 41.372 328.505 41.12 330.233 41.12C331.961 41.12 332.825 41.588 332.825 42.524V59.552C332.825 64.904 329.201 67.58 321.953 67.58C318.137 67.58 315.545 67.208 314.177 66.464C313.577 66.128 313.277 65.78 313.277 65.42C313.277 64.844 313.517 63.872 313.997 62.504C314.477 61.16 314.921 60.488 315.329 60.488C315.425 60.488 315.761 60.56 316.337 60.704C318.113 61.184 319.589 61.424 320.765 61.424C321.965 61.424 322.745 61.292 323.105 61.028C323.489 60.764 323.681 60.308 323.681 59.66Z" fill="#B3930B"/>
</svg>
