<svg width="318" height="58" viewBox="0 0 318 58" fill="none" xmlns="http://www.w3.org/2000/svg">
<g filter="url(#filter0_d)">
<path d="M26.6044 25.2023L42.1357 25.2105L42.1093 47.4292C39.6917 48.1988 37.2326 48.7808 34.7322 49.1753C32.2317 49.5699 29.3356 49.7663 26.044 49.7645C19.1273 49.7609 13.7443 47.706 9.89505 43.5998C6.04579 39.4728 4.12557 33.7009 4.1344 26.2843C4.14005 21.5343 5.09291 17.3785 6.99298 13.817C8.91391 10.2347 11.6672 7.50698 15.2527 5.63386C18.8383 3.73991 23.0374 2.79421 27.8499 2.79674C32.7248 2.7993 37.2654 3.69752 41.4717 5.4914L39.4036 10.1778C35.2807 8.42564 31.3129 7.54856 27.5004 7.54655C21.938 7.54363 17.5922 9.19759 14.4633 12.5084C11.3344 15.8193 9.76639 20.4122 9.7594 26.2872C9.75206 32.4539 11.2465 37.1318 14.2427 40.3208C17.2597 43.5099 21.6849 45.106 27.5183 45.1091C30.6849 45.1107 33.7791 44.7478 36.8008 44.0202L36.8175 29.9577L26.5988 29.9523L26.6044 25.2023ZM57.5135 49.1561L52.326 49.1533L52.3838 0.528386L57.5713 0.531114L57.5135 49.1561ZM98.0964 32.0212C98.0897 37.6045 96.6783 41.9683 93.862 45.1127C91.0458 48.2362 87.1585 49.7967 82.2002 49.7941C79.1377 49.7924 76.4198 49.0723 74.0465 47.6335C71.6732 46.1948 69.8424 44.1313 68.5539 41.4431C67.2654 38.755 66.6233 35.6088 66.6276 32.0046C66.6343 26.4213 68.0353 22.0783 70.8306 18.9756C73.626 15.8521 77.5029 14.2916 82.4612 14.2942C87.2529 14.2967 91.053 15.8925 93.8618 19.0814C96.6913 22.2704 98.1028 26.5837 98.0964 32.0212ZM72.0026 32.0074C71.9974 36.3824 72.8684 39.7162 74.6157 42.0088C76.363 44.3014 78.9345 45.4486 82.3304 45.4504C85.7262 45.4522 88.3005 44.3181 90.0532 42.0482C91.8267 39.7575 92.7161 36.4142 92.7214 32.0183C92.7265 27.6642 91.8451 24.3616 90.0769 22.1107C88.3296 19.8389 85.7372 18.7022 82.2997 18.7004C78.9039 18.6986 76.34 19.8118 74.6082 22.0401C72.8764 24.2683 72.0079 27.5908 72.0026 32.0074ZM135.17 49.1969L128.912 29.0999C128.518 27.8705 127.782 25.0784 126.704 20.7237L126.454 20.7236C125.616 24.369 124.883 27.1811 124.256 29.1599L117.763 49.1878L111.763 49.1846L102.46 14.9297L107.898 14.9326C110.096 23.5379 111.765 30.0909 112.906 34.5915C114.067 39.0921 114.73 42.1237 114.895 43.6862L115.145 43.6864C115.376 42.499 115.742 40.9679 116.244 39.0932C116.767 37.1976 117.217 35.6979 117.593 34.5939L123.898 14.941L129.523 14.9439L135.625 34.6034C136.787 38.1873 137.575 41.1982 137.989 43.6359L138.239 43.636C138.323 42.8861 138.543 41.7299 138.899 40.1676C139.276 38.6053 141.463 30.2002 145.46 14.9523L150.835 14.9551L141.326 49.2001L135.17 49.1969ZM181.119 12.6273C181.118 14.0648 181.491 15.44 182.24 16.7529C182.988 18.045 184.267 19.6081 186.078 21.4424C188.767 19.8813 190.633 18.4448 191.677 17.1329C192.741 15.8001 193.274 14.2691 193.276 12.54C193.278 10.9358 192.738 9.63343 191.655 8.63286C190.594 7.61147 189.168 7.10031 187.376 7.09936C185.522 7.09839 184.011 7.59759 182.843 8.59698C181.696 9.59638 181.121 10.9398 181.119 12.6273ZM185.924 45.1923C190.945 45.195 195.114 43.593 198.43 40.3864L184.79 27.1293C182.476 28.5447 180.839 29.7209 179.879 30.6579C178.92 31.5741 178.21 32.5633 177.751 33.6255C177.291 34.6878 177.061 35.896 177.059 37.2502C177.056 39.6877 177.856 41.6256 179.458 43.0639C181.082 44.4815 183.237 45.1909 185.924 45.1923ZM171.684 37.3724C171.687 34.664 172.409 32.2686 173.849 30.186C175.309 28.1034 177.916 26.0006 181.669 23.8776C179.9 21.8975 178.694 20.3969 178.049 19.3757C177.425 18.3545 176.926 17.2918 176.553 16.1874C176.179 15.0831 175.993 13.9371 175.994 12.7496C175.998 9.62463 177.022 7.18767 179.066 5.43874C181.109 3.68982 183.954 2.81631 187.6 2.81823C190.975 2.82001 193.63 3.6964 195.566 5.44742C197.501 7.1776 198.467 9.59478 198.463 12.6989C198.46 14.9281 197.75 16.9902 196.331 18.8853C194.912 20.7596 192.566 22.6646 189.293 24.6004L201.997 36.8258C203.165 35.5347 204.094 34.0248 204.784 32.296C205.494 30.5464 206.09 28.6404 206.572 26.5782L211.822 26.581C210.398 32.5385 208.257 37.0583 205.399 40.1401L214.732 49.2387L207.576 49.235L201.801 43.6694C199.34 45.8765 196.838 47.4585 194.296 48.4155C191.753 49.3725 188.919 49.8502 185.794 49.8485C181.315 49.8462 177.837 48.7402 175.36 46.5305C172.905 44.3209 171.679 41.2682 171.684 37.3724ZM257.917 25.324L273.448 25.3321L273.422 47.5508C271.004 48.3204 268.545 48.9025 266.045 49.297C263.544 49.6915 260.648 49.8879 257.356 49.8862C250.44 49.8825 245.057 47.8276 241.208 43.7214C237.358 39.5944 235.438 33.8225 235.447 26.4059C235.453 21.6559 236.405 17.5001 238.305 13.9386C240.226 10.3563 242.98 7.6286 246.565 5.75549C250.151 3.86154 254.35 2.91583 259.162 2.91836C264.037 2.92092 268.578 3.81914 272.784 5.61302L270.716 10.2994C266.593 8.54727 262.625 7.67018 258.813 7.66817C253.25 7.66525 248.905 9.31921 245.776 12.6301C242.647 15.9409 241.079 20.5338 241.072 26.4088C241.065 32.5755 242.559 37.2534 245.555 40.4424C248.572 43.6315 252.997 45.2276 258.831 45.2307C261.997 45.2323 265.092 44.8694 268.113 44.1418L268.13 30.0793L257.911 30.0739L257.917 25.324ZM313.221 32.1343C313.215 37.7176 311.803 42.0814 308.987 45.2258C306.171 48.3493 302.284 49.9098 297.325 49.9072C294.263 49.9056 291.545 49.1854 289.171 47.7466C286.798 46.3079 284.967 44.2444 283.679 41.5562C282.39 38.8681 281.748 35.7219 281.753 32.1177C281.759 26.5344 283.16 22.1914 285.956 19.0887C288.751 15.9652 292.628 14.4047 297.586 14.4073C302.378 14.4098 306.178 16.0056 308.987 19.1946C311.816 22.3835 313.228 26.6968 313.221 32.1343ZM287.128 32.1206C287.122 36.4956 287.993 39.8293 289.741 42.1219C291.488 44.4145 294.06 45.5617 297.455 45.5635C300.851 45.5653 303.425 44.4312 305.178 42.1613C306.952 39.8706 307.841 36.5273 307.846 32.1315C307.852 27.7773 306.97 24.4747 305.202 22.2238C303.455 19.9521 300.862 18.8153 297.425 18.8135C294.029 18.8117 291.465 19.9249 289.733 22.1532C288.001 24.3814 287.133 27.7039 287.128 32.1206Z" fill="#DCF0C9"/>
</g>
<defs>
<filter id="filter0_d" x="0.134369" y="0.528381" width="317.087" height="57.3788" filterUnits="userSpaceOnUse" color-interpolation-filters="sRGB">
<feFlood flood-opacity="0" result="BackgroundImageFix"/>
<feColorMatrix in="SourceAlpha" type="matrix" values="0 0 0 0 0 0 0 0 0 0 0 0 0 0 0 0 0 0 127 0"/>
<feOffset dy="4"/>
<feGaussianBlur stdDeviation="2"/>
<feColorMatrix type="matrix" values="0 0 0 0 0 0 0 0 0 0 0 0 0 0 0 0 0 0 0.25 0"/>
<feBlend mode="normal" in2="BackgroundImageFix" result="effect1_dropShadow"/>
<feBlend mode="normal" in="SourceGraphic" in2="effect1_dropShadow" result="shape"/>
</filter>
</defs>
</svg>
