<svg width="129" height="57" viewBox="0 0 129 57" fill="none" xmlns="http://www.w3.org/2000/svg">
<path d="M8.30167 56.032C5.90167 56.032 3.95767 55.24 2.46967 53.656C0.981673 52.072 0.237671 49.792 0.237671 46.816C0.237671 43.696 1.02967 40.648 2.61367 37.672C4.19767 34.696 6.21367 32.296 8.66167 30.472C11.1577 28.6 13.6057 27.664 16.0057 27.664C17.8297 27.664 19.1257 28.192 19.8937 29.248C20.7097 30.256 21.1177 31.504 21.1177 32.992C21.1177 34.432 20.7817 35.68 20.1097 36.736C19.4857 37.744 18.6217 38.248 17.5177 38.248C16.7017 38.248 16.0057 37.888 15.4297 37.168C16.1497 36.832 16.7737 36.088 17.3017 34.936C17.8297 33.736 18.0937 32.584 18.0937 31.48C18.0937 30.856 17.9737 30.4 17.7337 30.112C17.4937 29.824 17.0857 29.68 16.5097 29.68C14.8777 29.68 13.1257 30.664 11.2537 32.632C9.42967 34.552 7.86967 36.904 6.57367 39.688C5.32567 42.472 4.70168 45.016 4.70168 47.32C4.70168 49.048 5.10967 50.488 5.92567 51.64C6.74167 52.744 8.08567 53.296 9.95767 53.296C12.8857 53.296 15.7657 52.096 18.5977 49.696C21.4777 47.296 23.6857 44.152 25.2217 40.264L26.1577 40.984C25.0537 43.864 23.5417 46.456 21.6217 48.76C19.7017 51.016 17.5657 52.792 15.2137 54.088C12.9097 55.384 10.6057 56.032 8.30167 56.032Z" fill="#860206"/>
<path d="M27.2551 54.736C26.3911 54.736 25.6711 53.992 25.0951 52.504C24.5671 51.016 24.3031 49.264 24.3031 47.248C24.3031 42.832 25.6471 36.88 28.3351 29.392C31.0711 21.904 34.1671 15.232 37.6231 9.37601C41.0791 3.52 43.8151 0.592003 45.8311 0.592003C46.5991 0.592003 47.1751 1.072 47.5591 2.03201C47.9911 2.94401 48.2071 3.976 48.2071 5.128C48.2071 7.384 47.3911 10.384 45.7591 14.128C44.1751 17.872 42.0871 21.472 39.4951 24.928C36.9511 28.384 34.3351 30.928 31.6471 32.56C30.7831 34.576 30.1111 36.928 29.6311 39.616C29.1991 42.256 28.9831 44.632 28.9831 46.744C28.9831 47.512 29.0311 48.328 29.1271 49.192C31.0471 43.624 33.2071 39.136 35.6071 35.728C38.0551 32.272 40.7671 30.544 43.7431 30.544C45.5671 30.544 46.9351 31.192 47.8471 32.488C48.7591 33.736 49.2151 35.248 49.2151 37.024C49.2151 38.08 49.0711 39.088 48.7831 40.048C48.5431 41.008 48.1351 42.256 47.5591 43.792C47.0791 45.088 46.7191 46.12 46.4791 46.888C46.2391 47.656 46.1191 48.4 46.1191 49.12C46.1191 50.032 46.3111 50.728 46.6951 51.208C47.0791 51.64 47.6071 51.856 48.2791 51.856C49.9111 51.856 51.8311 50.728 54.0391 48.472C56.2471 46.168 58.0711 43.456 59.5111 40.336L60.4471 41.2C58.8631 44.848 56.8231 47.848 54.3271 50.2C51.8791 52.552 49.3111 53.728 46.6231 53.728C45.0391 53.728 43.8151 53.296 42.9511 52.432C42.0871 51.616 41.6551 50.536 41.6551 49.192C41.6551 48.136 42.0151 46.432 42.7351 44.08C43.5031 41.488 43.8871 39.568 43.8871 38.32C43.8871 37.12 43.6231 36.256 43.0951 35.728C42.6151 35.152 41.9671 34.864 41.1511 34.864C39.3751 34.864 37.8151 35.92 36.4711 38.032C35.1751 40.096 33.7591 43.024 32.2231 46.816C31.0711 49.6 30.1591 51.616 29.4871 52.864C28.8151 54.112 28.0711 54.736 27.2551 54.736ZM32.5831 29.752C34.6471 28.12 36.6871 25.768 38.7031 22.696C40.7671 19.576 42.4471 16.504 43.7431 13.48C45.0871 10.408 45.7591 8.248 45.7591 7.00001C45.7591 6.616 45.6631 6.42401 45.4711 6.42401C44.9431 6.42401 43.8391 7.62401 42.1591 10.024C40.5271 12.376 38.7991 15.352 36.9751 18.952C35.1511 22.552 33.6871 26.152 32.5831 29.752Z" fill="#860206"/>
<path d="M64.0893 54.16C62.1213 54.16 60.6573 53.488 59.6973 52.144C58.7853 50.8 58.3293 49 58.3293 46.744C58.3293 42.424 59.8173 36.568 62.7933 29.176C65.7693 21.736 69.0813 15.04 72.7293 9.08801C76.4253 3.136 79.0893 0.160004 80.7213 0.160004C81.3933 0.160004 81.9453 0.760003 82.3773 1.96C82.8573 3.112 83.0973 4.28801 83.0973 5.488C83.0973 7.696 82.1853 10.96 80.3613 15.28C78.5853 19.552 76.2333 23.896 73.3053 28.312C70.3773 32.728 67.2573 36.304 63.9453 39.04C63.3213 41.824 63.0093 44.248 63.0093 46.312C63.0093 50.008 64.0653 51.856 66.1773 51.856C67.9533 51.856 69.7533 50.728 71.5773 48.472C73.4493 46.216 75.1053 43.504 76.5453 40.336L77.6253 40.912C73.4973 49.744 68.9853 54.16 64.0893 54.16ZM64.5933 36.592C67.2333 33.952 69.8013 30.64 72.2973 26.656C74.8413 22.624 76.9053 18.784 78.4893 15.136C80.0733 11.44 80.8653 8.776 80.8653 7.144C80.8653 6.376 80.6973 5.992 80.3613 5.992C79.6893 5.992 78.2973 7.648 76.1853 10.96C74.1213 14.224 71.9853 18.232 69.7773 22.984C67.5693 27.736 65.8413 32.272 64.5933 36.592Z" fill="#860206"/>
<path d="M80.0969 54.304C78.1289 54.304 76.6889 53.704 75.7769 52.504C74.8649 51.304 74.4089 49.72 74.4089 47.752C74.4089 45.784 74.8169 43.72 75.6329 41.56C76.4489 39.4 77.5049 37.6 78.8009 36.16C80.0969 34.72 81.3929 34 82.6889 34C83.1209 34 83.6249 34.12 84.2009 34.36C83.6249 34.84 82.9289 35.896 82.1129 37.528C81.2969 39.16 80.5769 40.912 79.9529 42.784C79.3769 44.608 79.0889 46.096 79.0889 47.248C79.0889 49.984 79.9529 51.352 81.6809 51.352C82.6889 51.352 83.8889 50.824 85.2809 49.768C86.6729 48.712 88.0409 47.32 89.3849 45.592C88.0409 44.488 86.9849 43.048 86.2169 41.272C85.4969 39.496 85.1369 37.648 85.1369 35.728C85.1369 33.232 85.7609 31.096 87.0089 29.32C88.3049 27.544 90.0329 26.656 92.1929 26.656C94.0169 26.656 95.2889 27.16 96.0089 28.168C96.7769 29.128 97.1609 30.472 97.1609 32.2C97.1609 34.024 96.7049 36.088 95.7929 38.392C94.9289 40.648 93.7769 42.856 92.3369 45.016C93.2009 45.496 94.1129 45.736 95.0729 45.736C96.4649 45.736 97.9049 45.328 99.3929 44.512C100.881 43.648 102.009 42.328 102.777 40.552L103.641 41.272C102.729 43.384 101.433 44.944 99.7529 45.952C98.0729 46.96 96.3449 47.464 94.5689 47.464C93.2729 47.464 92.1209 47.224 91.1129 46.744C89.3849 49 87.5369 50.824 85.5689 52.216C83.6489 53.608 81.8249 54.304 80.0969 54.304ZM90.6809 43.72C91.9289 41.848 92.9369 39.952 93.7049 38.032C94.4729 36.064 94.8569 34.264 94.8569 32.632C94.8569 31.288 94.6409 30.28 94.2089 29.608C93.8249 28.936 93.3209 28.6 92.6969 28.6C92.0249 28.6 91.3289 28.936 90.6089 29.608C89.9369 30.232 89.3609 31.12 88.8809 32.272C88.4489 33.376 88.2329 34.6 88.2329 35.944C88.2329 37.432 88.4249 38.872 88.8089 40.264C89.2409 41.608 89.8649 42.76 90.6809 43.72Z" fill="#860206"/>
<path d="M109.202 55.168C106.37 55.168 104.186 54.376 102.65 52.792C101.162 51.256 100.418 49.264 100.418 46.816C100.418 43.984 101.354 40.936 103.226 37.672C105.098 34.408 107.45 31.672 110.282 29.464C113.162 27.208 115.97 26.08 118.706 26.08C121.682 26.08 123.17 27.544 123.17 30.472C123.17 32.824 122.282 35.032 120.506 37.096C118.73 39.112 116.45 40.768 113.666 42.064C110.882 43.36 108.098 44.152 105.314 44.44C105.122 45.256 105.026 46.12 105.026 47.032C105.026 48.76 105.458 50.2 106.322 51.352C107.186 52.504 108.65 53.08 110.714 53.08C113.642 53.08 116.594 51.856 119.57 49.408C122.546 46.96 124.97 43.936 126.842 40.336L127.706 40.984C125.786 45.256 123.122 48.688 119.714 51.28C116.306 53.872 112.802 55.168 109.202 55.168ZM105.674 43.072C107.69 42.352 109.802 41.344 112.01 40.048C114.218 38.752 116.09 37.24 117.626 35.512C119.21 33.736 120.002 31.888 120.002 29.968C120.002 29.392 119.882 28.984 119.642 28.744C119.45 28.456 119.066 28.312 118.49 28.312C117.002 28.312 115.37 29.056 113.594 30.544C111.866 32.032 110.258 33.928 108.77 36.232C107.33 38.536 106.298 40.816 105.674 43.072ZM120.362 21.904C120.026 21.76 119.762 21.496 119.57 21.112C119.426 20.68 119.354 20.32 119.354 20.032C119.354 19.456 119.786 18.448 120.65 17.008C121.562 15.52 122.594 14.2 123.746 13.048C124.946 11.896 125.978 11.32 126.842 11.32C127.754 11.32 128.282 12.064 128.426 13.552C124.874 16.624 122.186 19.408 120.362 21.904Z" fill="#860206"/>
</svg>
