<svg width="634" height="171" viewBox="0 0 634 171" fill="none" xmlns="http://www.w3.org/2000/svg">
<rect x="154" width="321" height="93" fill="#E82626"/>
<path d="M197.456 73H162.896V59.56H171.536V19.24H162.896V5.8H197.456V19.24H188.816V59.56H197.456V73ZM203.208 59.56C216.2 60.52 226.44 61 233.928 61C234.888 61 235.688 60.68 236.328 60.04C236.968 59.4 237.288 58.6 237.288 57.64V54.28H216.648C212.296 54.28 208.808 52.968 206.184 50.344C203.56 47.72 202.248 44.232 202.248 39.88V36.52C202.248 32.168 203.56 28.68 206.184 26.056C208.808 23.432 212.296 22.12 216.648 22.12H249.288V34.6H222.408C221.448 34.6 220.648 34.92 220.008 35.56C219.368 36.2 219.048 37 219.048 37.96C219.048 38.92 219.368 39.72 220.008 40.36C220.648 41 221.448 41.32 222.408 41.32H239.688C244.04 41.32 247.528 42.632 250.152 45.256C252.776 47.88 254.088 51.368 254.088 55.72V59.56C254.088 63.912 252.776 67.4 250.152 70.024C247.528 72.648 244.04 73.96 239.688 73.96C228.36 73.96 216.2 73.32 203.208 72.04V59.56ZM258.896 59.56C271.888 60.52 282.128 61 289.616 61C290.576 61 291.376 60.68 292.016 60.04C292.656 59.4 292.976 58.6 292.976 57.64V54.28H272.336C267.984 54.28 264.496 52.968 261.872 50.344C259.248 47.72 257.936 44.232 257.936 39.88V36.52C257.936 32.168 259.248 28.68 261.872 26.056C264.496 23.432 267.984 22.12 272.336 22.12H304.976V34.6H278.096C277.136 34.6 276.336 34.92 275.696 35.56C275.056 36.2 274.736 37 274.736 37.96C274.736 38.92 275.056 39.72 275.696 40.36C276.336 41 277.136 41.32 278.096 41.32H295.376C299.728 41.32 303.216 42.632 305.84 45.256C308.464 47.88 309.776 51.368 309.776 55.72V59.56C309.776 63.912 308.464 67.4 305.84 70.024C303.216 72.648 299.728 73.96 295.376 73.96C284.048 73.96 271.888 73.32 258.896 72.04V59.56ZM328.068 90.28C324.676 90.28 320.516 89.96 315.588 89.32V76.84H324.228C326.66 76.84 328.228 76.168 328.932 74.824C329.7 73.48 329.572 71.592 328.548 69.16L308.868 22.12H326.628L338.628 54.76L348.708 22.12H366.468L347.268 74.92C345.412 79.976 343.012 83.784 340.068 86.344C337.124 88.968 333.124 90.28 328.068 90.28ZM367.458 46.12V32.68H406.818V46.12H367.458ZM413.416 59.08C430.952 60.04 442.824 60.52 449.032 60.52C450.504 60.52 451.656 60.104 452.488 59.272C453.384 58.376 453.832 57.192 453.832 55.72V47.08H431.752C425.032 47.08 420.136 45.576 417.064 42.568C414.056 39.496 412.552 34.6 412.552 27.88V25C412.552 18.28 414.056 13.416 417.064 10.408C420.136 7.336 425.032 5.8 431.752 5.8H465.448V19.24H435.592C431.752 19.24 429.832 21.16 429.832 25V26.92C429.832 30.76 431.752 32.68 435.592 32.68H452.872C459.144 32.68 463.752 34.152 466.696 37.096C469.64 40.04 471.112 44.648 471.112 50.92V55.72C471.112 61.992 469.64 66.6 466.696 69.544C463.752 72.488 459.144 73.96 452.872 73.96C449.608 73.96 446.152 73.896 442.504 73.768L433.672 73.384C427.144 73.064 420.392 72.616 413.416 72.04V59.08Z" fill="white"/>
</svg>
